# AST/ASF file generated using VICON BodyLanguage
# -----------------------------------------------
:version 1.10
:name VICON
:units
  mass 1.0
  length 0.45
  angle deg
:documentation
   .ast/.asf automatically generated from VICON data using
   VICON BodyBuilder and BodyLanguage model FoxedUp or BRILLIANT.MOD
:root
   order TX TY TZ RX RY RZ
   axis XYZ
   position 0 0 0  
   orientation 0 0 0 
:bonedata
  begin
     id 1 
     name lhipjoint
     direction 0.603808 -0.713975 0.35448 
     length 2.2025 
     axis 0 0 0  XYZ
  end
  begin
     id 2 
     name lfemur
     direction 0.34202 -0.939693 0  
     length 6.55877  
     axis 0 0 20  XYZ
    dof rx ry rz
    limits (-160.0 20.0)
           (-70.0 70.0)
           (-60.0 70.0)
  end
  begin
     id 3 
     name ltibia
     direction 0.34202 -0.939693 0   
     length 6.80302   
     axis 0 0 20   XYZ
    dof rx
    limits (-10.0 170.0)
  end
  begin
     id 4 
     name lfoot
     direction 0.091848 -0.25235 0.963267   
     length 2.03446   
     axis -90 7.62852e-016 20   XYZ
    dof rx rz
    limits (-45.0 90.0)
           (-70.0 20.0)
  end
  begin
     id 5 
     name ltoes
     direction 1.53608e-011 -4.21925e-011 1   
     length 1.02033   
     axis -90 7.62852e-016 20   XYZ
    dof rx
    limits (-90.0 20.0)
  end
  begin
     id 6 
     name rhipjoint
     direction -0.587285 -0.724947 0.359928   
     length 2.16916  
     axis 0 0 0  XYZ 
  end
  begin
     id 7 
     name rfemur
     direction -0.34202 -0.939693 0   
     length 6.43173   
     axis 0 0 -20   XYZ
    dof rx ry rz
    limits (-160.0 20.0)
           (-70.0 70.0)
           (-70.0 60.0)
  end
  begin
     id 8 
     name rtibia
     direction -0.34202 -0.939693 0   
     length 6.70662   
     axis 0 0 -20   XYZ
    dof rx
    limits (-10.0 170.0)
 end
 begin
     id 9 
     name rfoot
     direction -0.11854 -0.325686 0.938018   
     length 2.0773  
     axis -90 -7.62852e-016 -20   XYZ
    dof rx rz
    limits (-45.0 90.0)
           (-20.0 70.0)
  end
  begin
     id 10 
     name rtoes
     direction -1.53547e-011 -4.21838e-011 1   
     length 1.03267   
     axis -90 -7.62852e-016 -20   XYZ
    dof rx
    limits (-90.0 20.0)
  end
  begin
     id 11 
     name lowerback
     direction -0.0286554 0.999539 0.0100613   
     length 2.08751   
     axis 0 0 0   XYZ
    dof rx ry rz
    limits (-20.0 45.0)
           (-30.0 30.0)
           (-30.0 30.0)
  end
  begin
     id 12 
     name upperback
     direction 0.0227093 0.999705 -0.00860929   
     length 2.08517   
     axis 0 0 0   XYZ
    dof rx ry rz
    limits (-20.0 45.0)
           (-30.0 30.0)
           (-30.0 30.0)
  end
  begin
     id 13 
     name thorax
     direction 0.0351627 0.999285 -0.013892   
     length 2.08412   
     axis 0 0 0   XYZ
    dof rx ry rz
    limits (-20.0 45.0)
           (-30.0 30.0)
           (-30.0 30.0)
  end
  begin
     id 14 
     name lowerneck
     direction -0.0696283 0.997344 0.0213922   
     length 1.44164   
     axis 0 0 0   XYZ
    dof rx ry rz
    limits (-20.0 45.0)
           (-30.0 30.0)
           (-30.0 30.0)
  end
  begin
     id 15 
     name upperneck
     direction 0.0531 0.990412 -0.127531   
     length 1.45022   
     axis 0 0 0   XYZ
    dof rx ry rz
    limits (-20.0 45.0)
           (-30.0 30.0)
           (-30.0 30.0)
  end
  begin
     id 16
     name head
     direction 0.0188154 0.998548 -0.0504727  
     length 1.45845  
     axis 0 0 0   XYZ
    dof rx ry rz
    limits (-20.0 45.0)
           (-30.0 30.0)
           (-30.0 30.0)
  end
  begin
     id 17 
     name lclavicle
     direction 0.961559 0.260051 0.088188  
     length 2.86057  
     axis 0 0 0   XYZ
    dof ry rz
    limits (-20.0 10.0)
           (0.0 20.0)
  end
  begin
     id 18 
     name lhumerus
     direction 1 -4.48959e-011 2.88185e-027   
     length 4.36901   
     axis 180 -30 -90   XYZ
    dof rx ry rz
    limits (-60.0 90.0)
           (-90.0 90.0)
           (-90.0 90.0)
  end
  begin
     id 19
     name lradius
     direction 1 -4.48965e-011 -3.92618e-028   
     length 3.21737   
     axis 180 -30 -90   XYZ
    dof rx
    limits (-10.0 170.0)
  end
  begin
     id 20
     name lwrist
     direction 1 -4.49037e-011 2.57246e-027   
     length 1.60869   
     axis -1.61769e-015 90 90   XYZ
    dof ry
    limits (-180.0 0.0)
 end
  begin
     id 21 
     name lhand
     direction 1 -4.48807e-011 5.12958e-027   
     length 0.564313   
     axis -3.27988e-015 90 90   XYZ
    dof rx rz
    limits (-90.0 90.0)
           (-45.0 45.0)
  end
  begin
     id 22 
     name lfingers
     direction 1 -4.48879e-011 1.02687e-026   
     length 0.454963   
     axis -6.5598e-015 90 90   XYZ
    dof rx
    limits (0.0 90.0)
  end
  begin
     id 23
     name lthumb
     direction 0.707107 -6.3475e-011 0.707107   
     length 0.653239   
     axis -90 45 2.19363e-014   XYZ
    dof rx rz
    limits (-45.0 45.0)
           (-45.0 45.0)
  end
  begin
     id 24 
     name rclavicle
     direction -0.954677 0.253915 0.155304   
     length 3.11497  
     axis 0 0 0   XYZ 
    dof ry rz
    limits (-10.0 20.0)
           (-20.0 0.0)
  end
  begin
     id 25 
     name rhumerus
     direction -1 -4.48958e-011 -8.20169e-028  
     length 4.34118   
     axis 180 30 90   XYZ
    dof rx ry rz
    limits (-90.0 60.0)
           (-90.0 90.0)
           (-90.0 90.0)
  end
  begin
     id 26 
     name rradius
     direction -1 -4.48978e-011 1.5676e-027   
     length 3.09531   
     axis 180 30 90   XYZ
    dof rx
    limits (-10.0 170.0)
  end
  begin
     id 27 
     name rwrist
     direction -1 -4.49001e-011 2.57123e-027   
     length 1.54765   
     axis -1.61769e-015 -90 -90   XYZ
    dof ry
    limits (-180.0 0.0)
  end
  begin
     id 28
     name rhand
     direction -1 -4.48847e-011 5.13225e-027   
     length 0.597446   
     axis -3.27988e-015 -90 -90   XYZ
    dof rx rz
    limits (-90.0 90.0)
           (-45.0 45.0)
  end
  begin
     id 29
     name rfingers
     direction -1 -4.49094e-011 1.02974e-026   
     length 0.481677   
     axis -6.5598e-015 -90 -90   XYZ
    dof rx
    limits (0.0 90.0)
  end
  begin
     id 30
     name rthumb
     direction -0.707107 -6.34859e-011 0.707107   
     length 0.691594   
     axis -90 -45 -2.19363e-014   XYZ
    dof rx rz
    limits (-45.0 45.0)
           (-45.0 45.0)
  end
:hierarchy
  begin
    root lhipjoint rhipjoint lowerback
    lhipjoint lfemur
    lfemur ltibia
    ltibia lfoot
    lfoot ltoes
    rhipjoint rfemur
    rfemur rtibia
    rtibia rfoot
    rfoot rtoes
    lowerback upperback
    upperback thorax
    thorax lowerneck lclavicle rclavicle
    lowerneck upperneck
    upperneck head
    lclavicle lhumerus
    lhumerus lradius
    lradius lwrist
    lwrist lhand lthumb
    lhand lfingers
    rclavicle rhumerus
    rhumerus rradius
    rradius rwrist
    rwrist rhand rthumb
    rhand rfingers
  end

#!OML:ASF I:\Acrobat_Osman\acrobat\cartwheel_test 2\Patient 1\Session 1\acrobat.ASF
:FULLY-SPECIFIED
:DEGREES
177
root 11.7397 16.7311 -7.35729 -242.88 73.1722 -52.0169
lowerback -3.75917 0.609783 -2.5498
upperback -11.1857 0.728851 -1.06792
thorax -9.75312 0.616554 0.234213
lowerneck -13.5321 -2.76066 -5.27355
upperneck -7.84628 -2.80817 5.50247
head -0.0341536 -1.18685 2.56394
rclavicle 1.57437e-013 2.70347e-014
rhumerus 17.6083 -18.8936 -8.52632
rradius 71.3273
rwrist -13.1935
rhand -46.644 65.9359
rfingers 7.12502
rthumb -19.365 36.8802
lclavicle 1.57437e-013 2.70347e-014
lhumerus 90.3009 28.505 49.4972
lradius 33.1469
lwrist 51.9471
lhand -41.4139 -99.2522
lfingers 7.12502
lthumb -14.3304 231.262
rfemur 17.1511 -7.01163 16.2153
rtibia 42.8921
rfoot 12.4413 -7.28892
rtoes -2.95716
lfemur -377.195 15.7605 -362.443
ltibia 41.2594
lfoot 0.430897 -4.40477
ltoes -16.988
178
root 11.6867 16.6801 -7.53643 -244.954 72.7238 -53.3302
lowerback -3.36176 0.656031 -2.54282
upperback -11.1697 0.744418 -1.46333
thorax -9.96557 0.602929 -0.198001
lowerneck -13.6146 -2.83324 -4.85018
upperneck -7.73015 -2.97093 5.36361
head 0.0149436 -1.28255 2.43014
rclavicle -2.22639e-014 1.11319e-014
rhumerus 14.9063 -18.9942 -8.68105
rradius 72.302
rwrist -14.18
rhand -48.1772 64.7928
rfingers 7.12502
rthumb -20.8387 35.8919
lclavicle -2.22639e-014 1.11319e-014
lhumerus 91.7324 26.9911 50.1485
lradius 31.986
lwrist 50.3365
lhand -41.5129 -99.3879
lfingers 7.12502
lthumb -14.4259 231.133
rfemur 18.2027 -7.04384 16.368
rtibia 42.617
rfoot 14.0024 -6.56371
rtoes -3.30851
lfemur -379.206 17.2336 -361.011
ltibia 41.4155
lfoot -0.895462 -2.80114
ltoes -19.6058
179
root 11.6386 16.6398 -7.7097 -246.585 72.2857 -54.0445
lowerback -2.71256 0.667711 -2.44332
upperback -11.1272 0.699454 -1.88308
thorax -10.2964 0.546621 -0.709253
lowerneck -13.4475 -2.86067 -4.40588
upperneck -7.83192 -3.07563 5.41582
head -0.0475244 -1.3508 2.36295
rclavicle 7.23576e-014 -7.15625e-015
rhumerus 12.3656 -19.2989 -9.05884
rradius 72.9093
rwrist -14.538
rhand -49.7487 63.577
rfingers 7.12502
rthumb -22.3479 34.8495
lclavicle 7.23576e-014 -7.15625e-015
lhumerus 93.478 25.286 51.292
lradius 30.6601
lwrist 48.1824
lhand -41.4257 -99.6377
lfingers 7.12502
lthumb -14.3418 230.878
rfemur 19.1947 -6.91221 16.5926
rtibia 42.5181
rfoot 15.5001 -6.2131
rtoes -1.80641
lfemur -381.297 18.7381 -359.39
ltibia 41.593
lfoot -2.36996 -0.318604
ltoes -16.135
180
root 11.5857 16.5745 -7.86937 -248.314 71.8795 -54.7082
lowerback -1.92312 0.696525 -2.50082
upperback -10.9636 0.688369 -2.11228
thorax -10.581 0.528939 -0.932156
lowerneck -13.3699 -2.92019 -4.1232
upperneck -7.95437 -3.19757 5.39148
head -0.100153 -1.42276 2.29893
rclavicle -1.35174e-013 -8.74653e-015
rhumerus 10.1036 -19.762 -9.25492
rradius 73.5379
rwrist -15.5672
rhand -49.0376 62.6252
rfingers 7.12502
rthumb -21.6651 33.8173
lclavicle -1.35174e-013 -8.74653e-015
lhumerus 95.2715 23.6714 52.8657
lradius 29.3538
lwrist 45.8444
lhand -41.281 -99.8244
lfingers 7.12502
lthumb -14.2025 230.681
rfemur 20.1734 -6.7978 16.7378
rtibia 42.5573
rfoot 16.9908 -6.04569
rtoes -1.14246
lfemur -383.427 19.8584 -357.492
ltibia 41.6946
lfoot -2.94737 1.68614
ltoes -16.3229
181
root 11.5284 16.4966 -8.0175 -250.583 71.3479 -55.7915
lowerback -1.01394 0.718791 -2.816
upperback -10.6797 0.65459 -2.30571
thorax -10.8079 0.523132 -0.970991
lowerneck -13.4304 -2.99244 -4.03426
upperneck -8.07282 -3.3033 5.35297
head -0.126422 -1.47806 2.26531
rclavicle 2.54444e-014 0
rhumerus 8.06618 -20.1645 -9.5875
rradius 74.3177
rwrist -16.5378
rhand -48.5751 61.6857
rfingers 7.12502
rthumb -21.2209 32.8273
lclavicle 2.54444e-014 0
lhumerus 96.0434 22.7452 53.6865
lradius 28.9407
lwrist 44.5039
lhand -41.405 -100.26
lfingers 7.12502
lthumb -14.3219 230.254
rfemur 21.1033 -6.7097 16.6057
rtibia 42.8079
rfoot 18.5106 -5.80202
rtoes -1.72243
lfemur -385.602 20.7742 -355.477
ltibia 41.7931
lfoot -3.97088 3.49286
ltoes -21.9653
182
root 11.4686 16.4262 -8.16206 -253.344 70.7483 -57.2765
lowerback 0.0244365 0.678521 -3.211
upperback -10.3575 0.50561 -2.58359
thorax -11.0726 0.461425 -1.04672
lowerneck -13.2842 -3.0802 -3.85399
upperneck -8.3627 -3.43889 5.66824
head -0.23356 -1.55392 2.33515
rclavicle 5.80451e-014 4.37326e-014
rhumerus 6.31852 -20.745 -10.5675
rradius 74.9816
rwrist -16.8381
rhand -48.8871 60.1828
rfingers 7.12502
rthumb -21.5206 31.3584
lclavicle 5.80451e-014 4.37326e-014
lhumerus 97.209 21.7047 54.926
lradius 28.2427
lwrist 42.4165
lhand -41.6261 -100.701
lfingers 7.12502
lthumb -14.5349 229.828
rfemur 21.9543 -6.36253 16.369
rtibia 43.2129
rfoot 19.9746 -5.81804
rtoes -2.09085
lfemur -387.731 21.3013 -353.09
ltibia 42.094
lfoot -5.21408 5.86724
ltoes -12.94
183
root 11.4005 16.3582 -8.30632 -256.327 70.2962 -59.0032
lowerback 0.989428 0.594718 -3.47169
upperback -10.0052 0.311461 -2.75884
thorax -11.2578 0.370156 -1.07681
lowerneck -13.2126 -3.15741 -3.79992
upperneck -8.47513 -3.53946 6.23995
head -0.263325 -1.60716 2.51411
rclavicle -1.86062e-013 -7.63333e-014
rhumerus 4.93536 -21.4649 -11.8645
rradius 75.7145
rwrist -16.8915
rhand -48.9709 58.3626
rfingers 7.12502
rthumb -21.601 29.5474
lclavicle -1.86062e-013 -7.63333e-014
lhumerus 98.3273 20.9641 56.0775
lradius 27.4014
lwrist 39.8508
lhand -41.3342 -100.706
lfingers 7.12502
lthumb -14.2537 229.803
rfemur 22.5912 -5.85917 16.1526
rtibia 43.772
rfoot 21.466 -5.99855
rtoes -1.75152
lfemur -390.093 22.9459 -350.803
ltibia 42.9583
lfoot -6.14308 9.77835
ltoes -15.7566
184
root 11.3224 16.2731 -8.44209 -259.421 69.6656 -60.875
lowerback 1.94994 0.482185 -3.7224
upperback -9.67683 0.0632943 -3.01061
thorax -11.4698 0.248606 -1.18626
lowerneck -13.2714 -3.19115 -4.21327
upperneck -8.34958 -3.51436 6.96619
head -0.18636 -1.57651 2.83604
rclavicle -6.36111e-015 4.45278e-014
rhumerus 3.68558 -22.0278 -13.3152
rradius 76.6394
rwrist -16.6585
rhand -48.9248 57.753
rfingers 7.12502
rthumb -21.5568 28.9327
lclavicle -6.36111e-015 4.45278e-014
lhumerus 99.2108 20.487 56.7913
lradius 26.6098
lwrist 37.4084
lhand -40.7453 -100.352
lfingers 7.12502
lthumb -13.6862 230.118
rfemur 23.0673 -5.51127 15.5718
rtibia 44.4102
rfoot 23.0032 -5.81147
rtoes -2.25422
lfemur -393.03 25.4509 -349.037
ltibia 44.6772
lfoot -7.44587 10.38
ltoes -38.8684
185
root 11.2374 16.18 -8.56472 -262.442 68.7046 -62.7369
lowerback 2.9082 0.395125 -4.17804
upperback -9.39291 -0.197931 -3.4737
thorax -11.7395 0.131314 -1.40752
lowerneck -13.1356 -3.15811 -4.61236
upperneck -8.40215 -3.39864 7.58676
head -0.208382 -1.50343 3.13141
rclavicle 2.78299e-013 1.98785e-013
rhumerus 2.2569 -22.4593 -14.8565
rradius 77.5324
rwrist -16.238
rhand -48.7313 57.9869
rfingers 7.12502
rthumb -21.371 29.1454
lclavicle 2.78299e-013 1.98785e-013
lhumerus 99.8484 20.0487 56.8586
lradius 26.2138
lwrist 35.9615
lhand -40.8034 -100.412
lfingers 7.12502
lthumb -13.7422 230.062
rfemur 23.318 -5.04104 14.769
rtibia 45.1161
rfoot 24.2614 -5.77726
rtoes -2.83073
lfemur -396.804 28.6796 -348
ltibia 47.4319
lfoot -8.68449 13.0594
ltoes -42.4662
186
root 11.1463 16.0871 -8.68521 -265.181 67.5834 -64.4057
lowerback 3.75675 0.484723 -4.86888
upperback -9.10374 -0.256728 -4.10617
thorax -11.9455 0.12766 -1.70793
lowerneck -12.9361 -3.18889 -4.42631
upperneck -8.59322 -3.45523 7.91878
head -0.295961 -1.54199 3.2121
rclavicle 6.2816e-014 5.725e-014
rhumerus 0.13026 -22.9387 -15.9636
rradius 78.4674
rwrist -15.8363
rhand -48.3506 57.247
rfingers 7.12502
rthumb -21.0053 28.3646
lclavicle 6.2816e-014 5.725e-014
lhumerus 100.467 19.4489 56.5428
lradius 26.2731
lwrist 35.4636
lhand -41.2845 -101.006
lfingers 7.12502
lthumb -14.2058 229.5
rfemur 23.2366 -4.30347 13.9879
rtibia 45.9231
rfoot 25.1623 -6.16823
rtoes -2.48671
lfemur -401.491 32.2211 -347.524
ltibia 51.0845
lfoot -9.90486 15.9986
ltoes -43.9656
187
root 11.0508 15.9999 -8.82042 -267.632 66.2449 -65.7048
lowerback 4.74134 0.651054 -5.83642
upperback -8.75324 -0.264381 -4.73864
thorax -12.1722 0.173065 -1.8671
lowerneck -12.9194 -3.31714 -3.6868
upperneck -8.83037 -3.7204 7.99771
head -0.373871 -1.70499 3.09018
rclavicle -3.02153e-014 -1.145e-013
rhumerus -2.15781 -23.5324 -16.6978
rradius 79.4465
rwrist -15.2872
rhand -47.4434 55.7754
rfingers 7.12502
rthumb -20.1335 26.7987
lclavicle -3.02153e-014 -1.145e-013
lhumerus 101.494 18.7638 56.8007
lradius 26.0739
lwrist 34.4272
lhand -41.4449 -101.438
lfingers 7.12502
lthumb -14.3603 229.079
rfemur 22.957 -3.51178 13.0075
rtibia 46.9377
rfoot 25.9896 -6.42059
rtoes -2.45789
lfemur -406.888 35.4316 -347.579
ltibia 55.351
lfoot -14.3681 18.6191
ltoes -41.1742
